# xmcd
#
# Track frame offsets: 
#        150
#        24036
#        63378
#        93045
#        125331
#        156595
#        227062
#
# Disc length: 3292 seconds
#
# Revision: 2
# Processed by: cddbd v1.5.2PL0 Copyright (c) Steve Scherf et al.
# Submitted via: ExactAudioCopy v0.99pb4
#
DISCID=4b0cda07
DTITLE=David Liebman - The Distance Runner
DYEAR=2006
DGENRE=Jazz
TTITLE0=The Loneliness of a Long Distance Runner: Mind And Body
TTITLE1=Colors: Red, Gray [US SPELLING OF 'grey'], Yellow
TTITLE2=Petite fleur
TTITLE3=The Tree: Roots, Limbs, Branches
TTITLE4=Mother - Father
TTITLE5=Time Immemorial: Before, Then, Now, After
TTITLE6=Peace On Earth
EXTD=YEAR: 2006
EXTT0=
EXTT1=
EXTT2=
EXTT3=
EXTT4=
EXTT5=
EXTT6=
PLAYORDER=
